<?xml version="1.0" standalone="no"?>
<!DOCTYPE svg PUBLIC "-//W3C//DTD SVG 20010904//EN"
 "http://www.w3.org/TR/2001/REC-SVG-20010904/DTD/svg10.dtd">
<svg version="1.0" xmlns="http://www.w3.org/2000/svg"
 width="828.000000pt" height="828.000000pt" viewBox="0 0 828.000000 828.000000"
 preserveAspectRatio="xMidYMid meet">

<g transform="translate(0.000000,828.000000) scale(0.100000,-0.100000)"
fill="#000000" stroke="none">
<path d="M1295 8269 c-419 -42 -809 -274 -1044 -623 -138 -205 -218 -432 -241
-689 -8 -87 -10 -934 -8 -2907 l4 -2785 21 -96 c87 -392 296 -708 607 -918
205 -138 432 -218 689 -241 87 -8 934 -10 2907 -8 l2785 4 96 21 c392 87 708
296 918 607 138 205 218 432 241 689 8 87 10 934 8 2907 l-4 2785 -21 96 c-87
392 -296 708 -607 918 -199 134 -427 216 -675 241 -124 12 -5552 12 -5676 -1z
m1974 -2087 c46 -25 73 -76 68 -127 -3 -33 -44 -100 -206 -344 -111 -167 -201
-305 -198 -307 2 -2 547 -3 1210 -2 l1207 3 -201 302 c-168 251 -202 309 -206
345 -11 108 110 186 202 130 20 -13 116 -148 284 -400 l254 -382 251 0 c274 0
331 -8 415 -57 68 -40 129 -107 164 -181 29 -61 32 -75 32 -167 0 -92 -3 -106
-32 -167 -65 -138 -185 -220 -344 -236 -110 -12 -161 -39 -195 -104 -7 -14
-90 -372 -184 -795 -187 -841 -199 -891 -237 -1008 -62 -194 -170 -340 -303
-409 -161 -85 -287 -96 -1110 -96 -652 0 -839 8 -962 39 -200 51 -339 178
-421 382 -47 117 -76 238 -258 1053 -99 444 -186 820 -193 835 -34 64 -82 90
-193 101 -159 17 -281 100 -346 238 -29 61 -32 75 -32 167 0 93 2 105 33 167
37 76 97 143 163 181 84 49 140 57 415 57 l251 0 254 382 c168 252 264 387
284 400 38 23 91 23 134 0z"/>
<path d="M2046 5088 c-61 -61 -53 -151 17 -202 l28 -21 2049 0 2049 0 28 21
c71 51 79 140 18 201 l-33 33 -2062 0 -2062 0 -32 -32z"/>
<path d="M2569 4571 c6 -10 87 -364 181 -787 195 -877 227 -1007 275 -1112 60
-130 137 -180 307 -202 114 -14 1521 -14 1624 1 164 23 239 73 298 200 49 105
74 207 266 1074 93 424 176 787 184 808 l14 37 -1579 0 c-1539 0 -1579 0
-1570 -19z m974 -400 c15 -10 34 -27 41 -37 11 -15 266 -892 290 -996 13 -58
-38 -130 -105 -148 -47 -13 -110 10 -138 49 -10 14 -82 250 -160 524 -159 555
-156 534 -85 597 28 24 43 30 82 30 29 0 58 -7 75 -19z m1351 -12 c70 -61 72
-46 -85 -599 -78 -272 -150 -507 -160 -522 -28 -39 -98 -63 -142 -49 -47 16
-85 55 -97 100 -9 33 5 88 129 522 76 267 146 499 155 517 21 41 60 61 118 62
39 0 54 -6 82 -31z"/>
</g>
</svg>
