<svg width="90" height="51" viewBox="0 0 90 51" fill="none" xmlns="http://www.w3.org/2000/svg">
<path d="M39.3127 8.65725C41.5065 3.18823 42.6033 0.453729 44.3854 0.0747393C44.854 -0.0249131 45.3383 -0.0249131 45.8069 0.0747393C47.5889 0.453729 48.6858 3.18823 50.8795 8.65725C52.1271 11.7674 52.7509 13.3224 53.918 14.3801C54.2454 14.6768 54.6008 14.941 54.9792 15.1691C56.3282 15.9822 58.0123 16.133 61.3804 16.4346C67.082 16.9452 69.9328 17.2006 70.8033 18.826C70.9836 19.1626 71.1062 19.5271 71.166 19.9043C71.4546 21.7255 69.3589 23.6322 65.1673 27.4456L64.0034 28.5046C62.0438 30.2874 61.0639 31.1788 60.4972 32.2913C60.1572 32.9587 59.9293 33.6773 59.8225 34.4186C59.6444 35.6544 59.9314 36.9476 60.5052 39.5339L60.7102 40.458C61.7393 45.0962 62.2539 47.4154 61.6115 48.5553C61.0346 49.5792 59.9718 50.2348 58.7979 50.2908C57.4909 50.3532 55.6494 48.8527 51.9663 45.8515C49.5398 43.8742 48.3265 42.8855 46.9796 42.4993C45.7488 42.1464 44.4435 42.1464 43.2127 42.4993C41.8658 42.8855 40.6525 43.8742 38.226 45.8515C34.5429 48.8527 32.7013 50.3532 31.3944 50.2908C30.2204 50.2348 29.1577 49.5792 28.5807 48.5553C27.9384 47.4154 28.453 45.0962 29.482 40.458L29.6871 39.5339C30.2609 36.9476 30.5478 35.6544 30.3698 34.4186C30.263 33.6773 30.035 32.9587 29.6951 32.2913C29.1283 31.1788 28.1485 30.2874 26.1889 28.5046L25.0249 27.4456C20.8334 23.6322 18.7376 21.7255 19.0263 19.9043C19.086 19.5271 19.2086 19.1626 19.3889 18.826C20.2595 17.2005 23.1103 16.9452 28.8119 16.4346C32.18 16.133 33.864 15.9822 35.2131 15.1691C35.5915 14.941 35.9468 14.6768 36.2742 14.3801C37.4414 13.3224 38.0652 11.7674 39.3127 8.65725Z" fill="white"/>
<path d="M78.8661 35.9156C79.6077 34.0669 79.9784 33.1426 80.5808 33.0145C80.7392 32.9808 80.9029 32.9808 81.0613 33.0145C81.6637 33.1426 82.0344 34.0669 82.776 35.9156C83.1977 36.9669 83.4085 37.4925 83.803 37.85C83.9137 37.9503 84.0338 38.0396 84.1617 38.1167C84.6177 38.3916 85.187 38.4425 86.3255 38.5445C88.2527 38.7171 89.2164 38.8034 89.5106 39.3528C89.5716 39.4666 89.613 39.5898 89.6332 39.7173C89.7308 40.3329 89.0224 40.9774 87.6055 42.2665L87.2121 42.6244C86.5497 43.227 86.2185 43.5284 86.0269 43.9044C85.912 44.13 85.835 44.3729 85.7989 44.6235C85.7387 45.0412 85.8357 45.4783 86.0296 46.3526L86.0989 46.6649C86.4468 48.2327 86.6207 49.0167 86.4036 49.402C86.2086 49.7481 85.8494 49.9697 85.4525 49.9886C85.0108 50.0097 84.3883 49.5025 83.1433 48.488C82.3231 47.8197 81.913 47.4855 81.4577 47.3549C81.0416 47.2356 80.6004 47.2356 80.1844 47.3549C79.7291 47.4855 79.319 47.8197 78.4988 48.488C77.2538 49.5025 76.6313 50.0097 76.1896 49.9886C75.7927 49.9697 75.4335 49.7481 75.2385 49.402C75.0214 49.0167 75.1953 48.2327 75.5432 46.6649L75.6125 46.3526C75.8064 45.4783 75.9034 45.0412 75.8432 44.6235C75.8071 44.3729 75.7301 44.13 75.6152 43.9044C75.4236 43.5284 75.0924 43.227 74.43 42.6244L74.0366 42.2665C72.6197 40.9774 71.9113 40.3329 72.0089 39.7173C72.0291 39.5898 72.0705 39.4666 72.1315 39.3528C72.4257 38.8034 73.3894 38.7171 75.3166 38.5445C76.4551 38.4425 77.0244 38.3916 77.4804 38.1167C77.6083 38.0396 77.7284 37.9503 77.8391 37.85C78.2336 37.4925 78.4444 36.9669 78.8661 35.9156Z" fill="white"/>
<path d="M6.86613 35.9156C7.60767 34.0669 7.97843 33.1426 8.58081 33.0145C8.7392 32.9808 8.9029 32.9808 9.06129 33.0145C9.66366 33.1426 10.0344 34.0669 10.776 35.9156C11.1977 36.9669 11.4085 37.4925 11.803 37.85C11.9137 37.9503 12.0338 38.0396 12.1617 38.1167C12.6177 38.3916 13.187 38.4425 14.3255 38.5445C16.2527 38.7171 17.2164 38.8034 17.5106 39.3528C17.5716 39.4666 17.613 39.5898 17.6332 39.7173C17.7308 40.3329 17.0224 40.9774 15.6055 42.2665L15.2121 42.6244C14.5497 43.227 14.2185 43.5284 14.0269 43.9044C13.912 44.13 13.835 44.3729 13.7989 44.6235C13.7387 45.0412 13.8357 45.4783 14.0296 46.3526L14.0989 46.6649C14.4468 48.2327 14.6207 49.0167 14.4036 49.402C14.2086 49.7481 13.8494 49.9697 13.4525 49.9886C13.0108 50.0097 12.3883 49.5025 11.1433 48.488C10.3231 47.8197 9.91298 47.4855 9.4577 47.3549C9.04165 47.2356 8.60045 47.2356 8.18439 47.3549C7.72912 47.4855 7.31901 47.8197 6.49878 48.488C5.25382 49.5025 4.63134 50.0097 4.18956 49.9886C3.79274 49.9697 3.43351 49.7481 3.23849 49.402C3.02137 49.0167 3.1953 48.2327 3.54315 46.6649L3.61246 46.3526C3.80643 45.4783 3.90341 45.0412 3.84323 44.6235C3.80712 44.3729 3.73007 44.13 3.61516 43.9044C3.42359 43.5284 3.09239 43.227 2.43 42.6244L2.03656 42.2665C0.619732 40.9774 -0.0886804 40.3329 0.00887852 39.7173C0.0290838 39.5898 0.0705209 39.4666 0.131467 39.3528C0.425736 38.8034 1.38937 38.7171 3.31663 38.5445C4.45512 38.4425 5.02436 38.3916 5.48037 38.1167C5.60827 38.0396 5.72839 37.9503 5.83906 37.85C6.23359 37.4925 6.44443 36.9669 6.86613 35.9156Z" fill="white"/>
</svg>
